<?xml version="1.0" encoding="UTF-8"?>
<svg version="1.1" xmlns="http://www.w3.org/2000/svg" width="1024" height="1024">
<path d="M0 0 C337.92 0 675.84 0 1024 0 C1024 337.92 1024 675.84 1024 1024 C686.08 1024 348.16 1024 0 1024 C0 686.08 0 348.16 0 0 Z " fill="#FEFEFE" transform="translate(0,0)"/>
<path d="M0 0 C1.42650559 0.73305087 2.85377684 1.46461336 4.28173828 2.19482422 C5.01096497 2.5693573 5.74019165 2.94389038 6.49151611 3.32977295 C9.95274435 5.08501031 13.45337149 6.75381734 16.9609375 8.4140625 C17.65782684 8.74423874 18.35471619 9.07441498 19.07272339 9.41459656 C21.25457872 10.44635968 23.43771445 11.47537245 25.62109375 12.50390625 C26.38296997 12.8635849 27.14484619 13.22326355 27.92980957 13.59384155 C40.92244734 19.72517791 53.97440312 25.72016086 67.07397461 31.61938477 C67.72494614 31.91308456 68.37591766 32.20678436 69.0466156 32.50938416 C70.873403 33.33300538 72.70132602 34.15410638 74.52929688 34.97509766 C77.17860364 36.2066562 79.72995747 37.52392314 82.29296875 38.921875 C86.11054504 40.63274732 86.81259029 40.55627757 90.68359375 39.44140625 C92.95232792 38.50626871 95.19622336 37.51005741 97.421875 36.4765625 C98.08288208 36.17178482 98.74388916 35.86700714 99.42492676 35.55299377 C100.86194634 34.88984583 102.29787139 34.22432205 103.7328186 33.55670166 C107.64882396 31.73511471 111.57307403 29.93141748 115.49609375 28.125 C116.32067581 27.74472656 117.14525787 27.36445313 117.99482727 26.97265625 C129.16580942 21.82650593 140.38783865 16.79258472 151.61865234 11.77856445 C158.71689177 8.60558426 165.79764699 5.42289558 172.78515625 2.01171875 C174.3014563 1.28154541 174.3014563 1.28154541 175.84838867 0.53662109 C177.61185444 -0.31894784 179.3660121 -1.19418649 181.10668945 -2.09521484 C185.94733705 -4.42710026 189.10345689 -4.92987165 194.29174805 -3.40869141 C198.95049247 -1.75290412 203.5474422 -0.00053725 208.12109375 1.87890625 C209.1877124 2.31122559 210.25433105 2.74354492 211.35327148 3.18896484 C223.5176643 8.14256559 235.60758508 13.27676802 247.68359375 18.44140625 C249.49664331 36.79531845 251.25674299 54.97326421 250.68359375 73.44140625 C223.91848066 85.46758037 197.12604629 97.43325218 170.25708008 109.22583008 C162.74361847 112.52658032 155.24365541 115.85702069 147.74682617 119.1953125 C144.67380378 120.56353769 141.59975058 121.9294023 138.5246582 123.29296875 C136.9890922 123.9739519 135.45352905 124.65494149 133.91796875 125.3359375 C132.7749958 125.84273544 132.7749958 125.84273544 131.6089325 126.35977173 C126.98966963 128.4103162 122.37840582 130.47773289 117.77268982 132.55851746 C114.83961544 133.88121672 111.90199927 135.19360502 108.96340942 136.5039978 C107.58311687 137.12240253 106.20486165 137.74537757 104.8288269 138.37319946 C102.92487449 139.24129291 101.0143437 140.09298182 99.1015625 140.94140625 C98.02672607 141.42609375 96.95188965 141.91078125 95.84448242 142.41015625 C89.79209999 144.3847653 85.31657517 143.67711784 79.640625 141.01953125 C78.49932129 140.49496338 77.35801758 139.97039551 76.18212891 139.42993164 C75.58265442 139.14715363 74.98317993 138.86437561 74.36553955 138.57302856 C71.79658858 137.36152273 69.21459565 136.17910847 66.6328125 134.99525452 C65.29331814 134.38100961 63.95445532 133.76538571 62.61621094 133.14842224 C56.06873097 130.13647207 49.4461979 127.31102803 42.80859375 124.50390625 C32.50921648 120.12551757 22.28982848 115.58792647 12.10293579 110.95550537 C-1.39566009 104.82007343 -14.96842488 98.85811178 -28.55541992 92.92138672 C-37.08740323 89.1913485 -45.60659287 85.43479591 -54.1015625 81.62109375 C-55.3265168 81.07233833 -55.3265168 81.07233833 -56.57621765 80.51249695 C-62.91277176 77.65919288 -69.14555843 74.63971152 -75.31640625 71.44140625 C-75.44362715 60.72455997 -75.241575 50.04745468 -74.58398438 39.34912109 C-74.48797829 37.64369794 -74.41119398 35.93709643 -74.35253906 34.22998047 C-73.85827781 20.22325445 -73.85827781 20.22325445 -70.57836914 16.43286133 C-67.87642961 15.01351182 -65.25864136 14.26104147 -62.31640625 13.44140625 C-60.25177962 12.64819781 -58.21272501 11.8023004 -56.16943359 10.95574951 C-53.09574189 9.69143254 -49.99596667 8.49868922 -46.89526367 7.30249023 C-44.5165771 6.38379995 -42.14195422 5.45515614 -39.76757812 4.52539062 C-11.94681318 -6.31065286 -11.94681318 -6.31065286 0 0 Z " fill="#080808" transform="translate(428.31640625,433.55859375)"/>
<path d="M0 0 C0.80653519 0.33513107 1.61307037 0.67026215 2.44404602 1.01554871 C5.09925469 2.11962649 7.75276655 3.22772055 10.40625 4.3359375 C12.25991377 5.10789657 14.11367471 5.87962234 15.9675293 6.65112305 C19.76722003 8.23289559 23.56622858 9.81629114 27.36474609 11.40087891 C32.45570934 13.52410907 37.54966028 15.64007398 42.64453125 17.75390625 C57.35786347 23.86182002 72.05347766 30.00417108 86.67504883 36.3293457 C98.04100039 41.23659964 109.4739946 45.94749775 120.90625 50.7109375 C120.90625 68.8609375 120.90625 87.0109375 120.90625 105.7109375 C112.15767696 109.79360492 103.43694254 113.85293397 94.59375 117.7109375 C92.41657723 118.66516055 90.23949914 119.61959965 88.0625 120.57421875 C86.91007813 121.07904785 85.75765625 121.58387695 84.5703125 122.10400391 C77.90676668 125.02481617 71.25039968 127.96195179 64.59375 130.8984375 C63.53334 131.36614059 63.53334 131.36614059 62.45150757 131.84329224 C48.76994111 137.87864573 35.10088109 143.94212638 21.44047546 150.02522278 C20.05189513 150.64232356 18.66234776 151.2572533 17.27180481 151.86991882 C13.51824467 153.52740328 9.79405097 155.23126683 6.08984375 156.99658203 C5.28683838 157.37202652 4.48383301 157.74747101 3.65649414 158.1342926 C2.11644422 158.85515714 0.58255016 159.58938189 -0.94360352 160.33921814 C-6.92070128 163.10824025 -10.9047519 162.84738046 -17.18212891 160.61035156 C-18.21772949 160.15370117 -19.25333008 159.69705078 -20.3203125 159.2265625 C-21.50101318 158.71061523 -22.68171387 158.19466797 -23.89819336 157.66308594 C-25.17180686 157.09591556 -26.44532299 156.52852646 -27.71875 155.9609375 C-29.06294053 155.36945341 -30.40742878 154.77864547 -31.75219727 154.18847656 C-41.71165262 149.80772478 -51.63354134 145.34170189 -61.55444336 140.87451172 C-71.93211013 136.20658995 -82.35112478 131.63527813 -92.78125 127.0859375 C-94.02665054 126.54188766 -94.02665054 126.54188766 -95.29721069 125.98684692 C-103.58906827 122.36612149 -111.88754431 118.76985528 -120.25390625 115.32421875 C-122.07112183 114.57229248 -122.07112183 114.57229248 -123.92504883 113.80517578 C-126.13534262 112.8956769 -128.34979894 111.99620069 -130.5690918 111.10888672 C-131.53113525 110.71330566 -132.49317871 110.31772461 -133.484375 109.91015625 C-134.30969727 109.57846436 -135.13501953 109.24677246 -135.98535156 108.9050293 C-138.52750751 107.46527886 -139.55800465 106.19313877 -141.09375 103.7109375 C-141.48815918 101.24475098 -141.48815918 101.24475098 -141.51367188 98.45507812 C-141.53753967 96.88324768 -141.53753967 96.88324768 -141.56188965 95.27966309 C-141.56209106 94.15354614 -141.56229248 93.0274292 -141.5625 91.8671875 C-141.57011353 90.7059436 -141.57772705 89.54469971 -141.58557129 88.3482666 C-141.59637365 85.8938207 -141.59922486 83.43932883 -141.59472656 80.98486328 C-141.59375359 77.22480934 -141.63539134 73.46679086 -141.6796875 69.70703125 C-141.68489386 67.32292093 -141.6875827 64.9388035 -141.6875 62.5546875 C-141.70389526 61.42857056 -141.72029053 60.30245361 -141.73718262 59.14221191 C-141.66837754 51.39404492 -141.66837754 51.39404492 -138.91723633 48.12353516 C-136.07469502 46.70140424 -133.29814329 45.39118036 -130.32421875 44.265625 C-128.64066284 43.61859619 -128.64066284 43.61859619 -126.9230957 42.95849609 C-125.72128662 42.50555176 -124.51947754 42.05260742 -123.28125 41.5859375 C-120.71436775 40.60094847 -118.1502207 39.60891973 -115.5859375 38.6171875 C-114.94249893 38.36923431 -114.29906036 38.12128113 -113.63612366 37.86581421 C-108.02009713 35.69705889 -102.45550791 33.419357 -96.90625 31.0859375 C-94.96224224 30.26952493 -93.01823165 29.45311908 -91.07421875 28.63671875 C-90.00220215 28.18635254 -88.93018555 27.73598633 -87.82568359 27.27197266 C-83.35424193 25.39825633 -78.8742762 23.5451623 -74.39453125 21.69140625 C-73.52991776 21.33359573 -72.66530426 20.97578522 -71.77449036 20.60713196 C-69.99028129 19.86880007 -68.20606592 19.13048341 -66.42184448 18.3921814 C-50.71633575 11.89206009 -35.03201699 5.34731957 -19.39746094 -1.32202148 C-18.25712402 -1.80070679 -18.25712402 -1.80070679 -17.09375 -2.2890625 C-16.25360352 -2.68101807 -15.41345703 -3.07297363 -14.54785156 -3.47680664 C-9.53573944 -5.13571005 -4.64740459 -1.94627594 0 0 Z " fill="#070707" transform="translate(526.09375,172.2890625)"/>
<path d="M0 0 C0.93448471 0.40889465 0.93448471 0.40889465 1.8878479 0.8260498 C3.92513736 1.71854848 5.96064768 2.61502489 7.99609375 3.51171875 C9.42679196 4.13967468 10.85753811 4.76752139 12.28833008 5.39526367 C21.75388479 9.55363489 31.19216228 13.77110364 40.62109375 18.01171875 C44.12205563 19.58205911 47.62363477 21.15100145 51.12597656 22.71826172 C53.30596339 23.694332 55.48502412 24.67247369 57.66308594 25.65283203 C60.6023248 26.97183973 63.54789242 28.27539343 66.49609375 29.57421875 C67.35291748 29.96198486 68.20974121 30.34975098 69.0925293 30.74926758 C69.87668213 31.09111084 70.66083496 31.4329541 71.46875 31.78515625 C72.14301025 32.08470215 72.81727051 32.38424805 73.51196289 32.69287109 C78.19374847 33.92651654 83.19185228 30.80262416 87.49609375 29.07421875 C88.34751953 28.73293945 89.19894531 28.39166016 90.07617188 28.04003906 C98.91305954 24.46320358 107.67396248 20.71015962 116.43359375 16.94921875 C117.18055511 16.62852417 117.92751648 16.30782959 118.69711304 15.97741699 C126.04566369 12.82062365 133.38997027 9.65416135 140.72674561 6.47009277 C143.31287717 5.34844443 145.90047738 4.2302105 148.48828125 3.11242676 C150.26594576 2.34268563 152.04120865 1.56740562 153.81640625 0.79199219 C154.88375 0.33083008 155.95109375 -0.13033203 157.05078125 -0.60546875 C157.97487793 -1.00749512 158.89897461 -1.40952148 159.85107422 -1.82373047 C165.42435898 -3.9322846 168.0555493 -3.92578184 173.5703125 -1.44140625 C174.7756665 -0.90773438 175.98102051 -0.3740625 177.22290039 0.17578125 C178.52244896 0.76659554 179.82184338 1.35774899 181.12109375 1.94921875 C183.13564568 2.85062237 185.15203952 3.74780936 187.16862488 4.64465332 C188.54400124 5.25662648 189.91868159 5.87016618 191.29267883 6.48522949 C195.83816173 8.51425507 200.41146332 10.45763262 205.01953125 12.33984375 C206.78550659 13.0654248 206.78550659 13.0654248 208.5871582 13.80566406 C210.81127608 14.7148716 213.03885548 15.61567031 215.27026367 16.50683594 C221.30842249 18.99749771 226.38127025 21.09457176 229.43359375 27.19921875 C229.53812216 28.64794349 229.58224649 30.10127374 229.59472656 31.55371094 C229.60433411 32.45514832 229.61394165 33.35658569 229.62384033 34.28533936 C229.63021515 35.75091278 229.63021515 35.75091278 229.63671875 37.24609375 C229.64241882 38.25005188 229.6481189 39.25401001 229.6539917 40.28839111 C229.66345046 42.41685937 229.66997915 44.54534233 229.67382812 46.67382812 C229.68351301 49.92213745 229.7145199 53.16980858 229.74609375 56.41796875 C229.75262583 58.48567333 229.7578755 60.55338243 229.76171875 62.62109375 C229.77406555 63.59004578 229.78641235 64.5589978 229.7991333 65.55731201 C229.78179015 70.83952354 229.50755137 74.69018997 226.43359375 79.19921875 C224.71801758 80.71850586 224.71801758 80.71850586 222.828125 81.7890625 C222.11994629 82.19366699 221.41176758 82.59827148 220.68212891 83.01513672 C216.86828412 85.02351318 213.02504128 86.93432294 209.12109375 88.76171875 C208.22084473 89.18662598 207.3205957 89.6115332 206.39306641 90.04931641 C195.61385614 95.1032716 184.71932782 99.90027986 173.82617188 104.70214844 C168.56545392 107.02358788 163.31221956 109.36178496 158.05859375 111.69921875 C155.84119622 112.68500918 153.62374511 113.6706791 151.40625 114.65625 C150.81036575 114.92110703 150.21448151 115.18596405 149.60054016 115.45884705 C144.85015205 117.57011799 140.09919717 119.68011141 135.34814453 121.78988647 C131.38820245 123.54844826 127.42843833 125.30741057 123.46868896 127.06640625 C121.52284366 127.93067592 119.57692371 128.79477754 117.63092041 129.65869141 C115.76574492 130.48674004 113.9007328 131.31515678 112.03588867 132.14395142 C110.21027584 132.9546405 108.38394832 133.76372223 106.55688477 134.57113647 C101.94085443 136.61584653 97.34804251 138.69847413 92.78076172 140.85009766 C91.87087997 141.2739827 90.96099823 141.69786774 90.02354431 142.13459778 C88.29748926 142.94058985 86.57639197 143.7573168 84.86134338 144.58647156 C79.16724085 147.23052138 79.16724085 147.23052138 75.69848633 147.08251953 C73.16848719 146.09582805 70.71150318 145.06538976 68.26171875 143.890625 C67.22611816 143.40013672 66.19051758 142.90964844 65.12353516 142.40429688 C63.98835449 141.86224609 62.85317383 141.32019531 61.68359375 140.76171875 C49.56274296 135.03913604 37.33787392 129.57254575 25.05859375 124.19921875 C24.17912079 123.81425232 23.29964783 123.42928589 22.39352417 123.03265381 C16.40973107 120.41495416 10.42263168 117.80489409 4.43359375 115.19921875 C3.34640045 114.72618317 3.34640045 114.72618317 2.23724365 114.24359131 C-7.02471881 110.21510569 -16.29465339 106.20511547 -25.56640625 102.19921875 C-28.19282881 101.0640806 -30.81911844 99.92863543 -33.4453125 98.79296875 C-34.10070511 98.50955627 -34.75609772 98.2261438 -35.43135071 97.93414307 C-41.04720091 95.50483775 -46.6590711 93.06643661 -52.27050781 90.62695312 C-55.27916964 89.32364539 -58.29284713 88.03289795 -61.30859375 86.74609375 C-62.93633665 86.04328998 -64.56395303 85.34019305 -66.19140625 84.63671875 C-66.90135742 84.33854248 -67.61130859 84.04036621 -68.34277344 83.7331543 C-72.23567695 82.0357353 -75.1068241 80.68532344 -77.56640625 77.19921875 C-78.17857538 73.48637809 -78.12641644 69.80260116 -78.09765625 66.046875 C-78.10148315 64.95459091 -78.10531006 63.86230682 -78.10925293 62.73692322 C-78.11197383 60.42787759 -78.10460029 58.11880123 -78.08789062 55.80981445 C-78.06650549 52.2781076 -78.08767715 48.74843995 -78.11328125 45.21679688 C-78.1106376 42.97265176 -78.10551187 40.72850792 -78.09765625 38.484375 C-78.10575317 37.42904068 -78.1138501 36.37370636 -78.12219238 35.28639221 C-78.06687116 30.95257993 -77.95190119 27.95847156 -75.97070312 24.05639648 C-72.64602485 21.48827833 -70.78381585 21.14145334 -66.56640625 21.19921875 C-63.21216095 22.162203 -60.12359215 23.57089477 -56.96484375 25.04296875 C-56.04802826 25.45333374 -55.13121277 25.86369873 -54.18661499 26.28649902 C-52.26230431 27.14927735 -50.34119715 28.0192332 -48.42321777 28.89599609 C-45.71366228 30.13204337 -42.99519448 31.34460908 -40.27050781 32.546875 C-35.83560504 34.50386672 -31.40755869 36.47574466 -26.98165894 38.45300293 C-9.94431375 46.06242455 7.12292749 53.59888734 24.24951172 61.00537109 C32.41017527 64.53971998 40.53358475 68.14013229 48.6171875 71.84765625 C51.09406892 72.97633508 53.57140509 74.10401092 56.04879761 75.23156738 C58.37323819 76.29656541 60.68854527 77.37982652 63.00415039 78.46386719 C64.41771175 79.10834335 65.83167133 79.75194704 67.24609375 80.39453125 C67.87345932 80.69563812 68.50082489 80.996745 69.14720154 81.30697632 C74.74320371 83.8069807 78.79964528 83.13483144 84.44262695 81.13037109 C85.44640381 80.6864502 86.45018066 80.2425293 87.484375 79.78515625 C89.21723755 79.0264624 89.21723755 79.0264624 90.98510742 78.25244141 C92.23882266 77.69315293 93.49248309 77.13374159 94.74609375 76.57421875 C96.07427798 75.98928155 97.40281848 75.40515272 98.73168945 74.82177734 C102.25664812 73.27178438 105.77693843 71.71147521 109.29602051 70.14819336 C114.86385249 67.67635704 120.43766889 65.21800226 126.01022339 62.75683594 C127.42405269 62.13218293 128.8377273 61.50717968 130.25125122 60.88183594 C142.6391073 55.40175416 155.07420473 50.03770525 167.53125 44.71704102 C168.96875854 44.10304733 170.40625857 43.48903374 171.84375 42.875 C172.55032745 42.57320328 173.25690491 42.27140656 173.9848938 41.96046448 C181.87517149 38.5875544 189.74913775 35.17712654 197.62109375 31.76171875 C198.27968384 31.47601013 198.93827393 31.19030151 199.61682129 30.89593506 C203.22284701 29.3313635 206.82843661 27.76579064 210.43359375 26.19921875 C206.14611502 23.7492309 203.35120655 22.86029969 198.43359375 23.19921875 C195.78927821 23.95915649 195.78927821 23.95915649 193.19213867 25.13598633 C192.19216354 25.56095901 191.19218842 25.9859317 190.16191101 26.42378235 C189.090121 26.89237167 188.01833099 27.360961 186.9140625 27.84375 C185.7832576 28.32817062 184.6524527 28.81259125 183.48738098 29.31169128 C179.86084686 30.86827681 176.24102194 32.43984114 172.62109375 34.01171875 C170.2588795 35.02766042 167.89625278 36.04264361 165.53320312 37.05664062 C149.17940713 44.0867725 132.88584098 51.25421723 116.60421753 58.44961548 C111.35807841 60.76715367 106.10574646 63.06922768 100.84228516 65.34716797 C99.11818836 66.09707864 97.39692178 66.8535225 95.67822266 67.61572266 C93.1215781 68.74816106 90.55633462 69.85856747 87.98828125 70.96484375 C87.22788544 71.30735168 86.46748962 71.64985962 85.68405151 72.00274658 C79.78062291 74.50423719 75.71723108 74.35742162 69.58325195 72.19384766 C68.64312256 71.77538574 67.70299316 71.35692383 66.734375 70.92578125 C65.07825195 70.1977832 65.07825195 70.1977832 63.38867188 69.45507812 C62.18662109 68.91689453 60.98457031 68.37871094 59.74609375 67.82421875 C58.44771574 67.25093263 57.14887195 66.67870044 55.84960938 66.10742188 C53.72657463 65.17379759 51.6038679 64.23948387 49.48245239 63.30218506 C40.77350018 59.45581427 32.0279216 55.69457061 23.28439331 51.92764282 C18.54675476 49.8861702 13.81041008 47.84170248 9.07421875 45.796875 C8.15825424 45.40145004 7.24228973 45.00602509 6.29856873 44.59861755 C0.79363698 42.22120171 -4.70829319 39.83701631 -10.20703125 37.4453125 C-10.86024857 37.16140152 -11.51346588 36.87749054 -12.18647766 36.5849762 C-15.25383252 35.25173985 -18.32035271 33.91668385 -21.38549805 32.57836914 C-27.12611889 30.08151315 -32.88331134 27.65061264 -38.6953125 25.32421875 C-39.82356445 24.86926025 -40.95181641 24.41430176 -42.11425781 23.94555664 C-44.22923115 23.0976377 -46.34944462 22.26262839 -48.47558594 21.44311523 C-49.39887695 21.07259033 -50.32216797 20.70206543 -51.2734375 20.3203125 C-52.08272705 20.00505615 -52.8920166 19.6897998 -53.72583008 19.36499023 C-55.56640625 18.19921875 -55.56640625 18.19921875 -56.3347168 16.06665039 C-56.41117432 15.45039795 -56.48763184 14.83414551 -56.56640625 14.19921875 C-16.76804231 -7.3551632 -16.76804231 -7.3551632 0 0 Z " fill="#080808" transform="translate(439.56640625,314.80078125)"/>
<path d="M0 0 C3.41908635 0.59527146 6.40545732 1.46160317 9.58959961 2.83496094 C10.47457626 3.21386978 11.35955292 3.59277863 12.27134705 3.98316956 C13.22207596 4.39606735 14.17280487 4.80896515 15.15234375 5.234375 C16.15121109 5.66366806 17.15007843 6.09296112 18.17921448 6.53526306 C21.43401182 7.9355029 24.68578074 9.34262864 27.9375 10.75 C30.19124175 11.72149174 32.44514884 12.69259998 34.69921875 13.66333008 C40.18182084 16.0258083 45.66201416 18.39381091 51.14129639 20.76397705 C54.28927937 22.12507625 57.43855095 23.48316002 60.58824158 24.84030151 C75.46046215 31.24911982 90.29410464 37.74627391 105.125 44.25 C106.39476685 44.80643692 106.39476685 44.80643692 107.69018555 45.37411499 C117.97322862 49.88191002 128.23483165 54.43317913 138.46072388 59.06939697 C139.99005444 59.76115791 141.52168596 60.44786559 143.05609131 61.1282959 C144.61538133 61.82752602 146.15695652 62.56620147 147.69189453 63.31738281 C152.77866097 64.82178296 157.26560312 62.63624688 161.875 60.515625 C163.00929443 59.99935547 164.14358887 59.48308594 165.31225586 58.95117188 C165.91165985 58.6745874 166.51106384 58.39800293 167.12863159 58.11303711 C170.37176732 56.61736877 173.62612672 55.14642041 176.87890625 53.671875 C177.55176163 53.36612549 178.224617 53.06037598 178.91786194 52.74536133 C185.88963879 49.58282213 192.90809133 46.53179564 199.9375 43.5 C201.19312118 42.95785881 202.44873638 42.4157038 203.7043457 41.87353516 C205.59352297 41.05806713 207.48281202 40.24286132 209.37236023 39.42825317 C214.30585051 37.30125328 219.23469496 35.16372366 224.16253662 33.02366638 C240.79219494 25.80239971 257.44488641 18.63531051 274.11784363 11.51457214 C278.19217218 9.77428044 282.26315412 8.02645038 286.33203125 6.2734375 C288.05455307 5.5361442 289.77719534 4.79913216 291.5 4.0625 C292.24660889 3.73854248 292.99321777 3.41458496 293.76245117 3.08081055 C296.68445908 1.83871866 298.78867787 1 302 1 C302.81793224 6.21002218 303.28323883 11.36024029 303.5625 16.625 C303.60568359 17.34300781 303.64886719 18.06101562 303.69335938 18.80078125 C304.06348121 25.53347377 304.04124032 32.25884492 304 39 C302.22526042 39.79557292 300.45052083 40.59114583 298.67578125 41.38671875 C297.51804199 41.90572754 296.36030273 42.42473633 295.16748047 42.95947266 C292.55070657 44.13252084 289.93383204 45.3053442 287.31689453 46.47802734 C280.91929683 49.34508401 274.52244083 52.21373336 268.12890625 55.08984375 C247.45920743 64.38308003 226.73771259 73.55825819 205.99304199 82.68280029 C202.88568878 84.05030692 199.77922916 85.41982956 196.67285156 86.78955078 C191.37219482 89.12582613 186.06812077 91.45418811 180.76168823 93.77731323 C178.72479481 94.67026256 176.68891103 95.56551879 174.65408325 96.46316528 C171.81775779 97.71371245 168.9777708 98.95554846 166.13671875 100.1953125 C165.29803253 100.56729263 164.45934631 100.93927277 163.59524536 101.32252502 C153.51130542 105.69594864 153.51130542 105.69594864 148.52270508 104.31347656 C147.28363403 103.73291504 147.28363403 103.73291504 146.01953125 103.140625 C145.04338867 102.69436768 144.06724609 102.24811035 143.06152344 101.78833008 C141.9893457 101.28068115 140.91716797 100.77303223 139.8125 100.25 C138.02165329 99.42842728 136.23075934 98.60695448 134.43875122 97.78791809 C133.12496121 97.18659926 131.81206224 96.58333059 130.49996948 95.97831726 C122.37349715 92.23319626 114.18378254 88.63170587 105.9960022 85.02313232 C103.22860628 83.80306813 100.46221945 82.58074073 97.69604492 81.35791016 C84.54686352 75.54784515 71.3729262 69.79600955 58.18862915 64.06616211 C46.27380504 58.88639369 34.3940491 53.63485531 22.55517578 48.28369141 C15.64270732 45.16284573 8.69541702 42.14756559 1.70532227 39.20581055 C-1 38 -1 38 -2 37 C-2.59435465 28.99587839 -1.63182889 20.84970521 -1 12.875 C-0.90460938 11.63234375 -0.80921875 10.3896875 -0.7109375 9.109375 C-0.47734233 6.07263782 -0.24028968 3.03621354 0 0 Z " fill="#FCFCFC" transform="translate(365,462)"/>
<path d="M0 0 C3.99745777 1.18097878 7.71819845 2.70272134 11.51977539 4.40234375 C12.32079178 4.75424774 13.12180817 5.10615173 13.94709778 5.46871948 C16.5773934 6.62698384 19.20294495 7.79558401 21.82836914 8.96484375 C23.66955274 9.77909129 25.51086309 10.59305228 27.35229492 11.40673828 C41.04935236 17.47354687 54.67358752 23.69520878 68.27197266 29.97949219 C79.37444634 35.10953963 90.52338323 40.12065561 101.71118164 45.0625 C106.9882884 47.39374234 112.25323388 49.75129131 117.51345825 52.12030029 C122.96719534 54.57625621 128.42833792 57.01531636 133.89086914 59.45166016 C137.10609568 60.89320921 140.31134454 62.35516688 143.51586914 63.8203125 C145.39048979 64.66100266 147.26546599 65.50090064 149.14086914 66.33984375 C149.97215332 66.72744873 150.8034375 67.11505371 151.65991211 67.5144043 C152.82224365 68.02741089 152.82224365 68.02741089 154.00805664 68.55078125 C154.66660645 68.85032715 155.32515625 69.14987305 156.00366211 69.45849609 C161.7986125 70.75557435 166.88563858 68.48119962 172.03540039 66.0078125 C172.66499664 65.70896149 173.2945929 65.41011047 173.94326782 65.10220337 C175.99248011 64.12741089 178.0352706 63.13987658 180.07836914 62.15234375 C181.51479418 61.46663255 182.95173157 60.78199368 184.38916016 60.09838867 C186.57720985 59.05764746 188.76491739 58.01625185 190.95097351 56.97132874 C197.50484468 53.83947081 204.0985242 50.80030505 210.70336914 47.77734375 C219.31061267 43.82573677 227.86374688 39.77385045 236.39086914 35.65234375 C243.50548187 32.21530122 250.63015654 28.86176831 257.89257812 25.75 C264.63713068 22.84311765 271.29278735 19.74567334 277.95336914 16.65234375 C278.85756592 16.23356964 278.85756592 16.23356964 279.7800293 15.80633545 C286.04976881 12.90189668 292.29959118 9.96774975 298.49243164 6.90234375 C299.44158447 6.43610596 300.3907373 5.96986816 301.36865234 5.48950195 C303.12053875 4.62500228 304.86694227 3.74926141 306.60644531 2.86010742 C311.30571723 0.54707469 314.90260095 -0.80902807 320.26586914 -0.03515625 C321.94213867 1.078125 321.94213867 1.078125 323.26586914 2.96484375 C323.60644531 5.9675293 323.60644531 5.9675293 323.55883789 9.6015625 C323.54916992 10.90029297 323.53950195 12.19902344 323.52954102 13.53710938 C323.50447499 14.90886014 323.47908015 16.28060493 323.45336914 17.65234375 C323.43831934 19.03579299 323.42463144 20.41925776 323.41235352 21.80273438 C323.37694138 25.19049582 323.32754968 28.57747514 323.26586914 31.96484375 C309.47328707 39.47598483 295.38854308 46.17852446 281.09448242 52.67822266 C271.14709496 57.20288448 261.29528659 61.91239724 251.46130371 66.67758179 C235.86658564 74.2330584 220.16974616 81.55358327 204.43341064 88.80981445 C200.72960094 90.51797247 197.0266846 92.2280413 193.32501221 93.94082642 C191.5414326 94.76552363 189.75692868 95.58822088 187.97241211 96.41088867 C182.97957226 98.72376406 178.0130155 101.05765301 173.12915039 103.59375 C172.38697266 103.97877686 171.64479492 104.36380371 170.88012695 104.76049805 C169.5688975 105.45028213 168.26405447 106.15243853 166.96801758 106.87036133 C163.17097344 108.88078594 161.35409854 109.11795248 157.26586914 107.96484375 C154.71444768 106.89159696 152.22245226 105.78001816 149.72290039 104.59765625 C148.97871353 104.25126602 148.23452667 103.90487579 147.4677887 103.54798889 C145.85171246 102.79528233 144.23673651 102.04020991 142.6227417 101.28305054 C138.23713895 99.22638201 133.8427977 97.18852311 129.44946289 95.1484375 C128.53372498 94.72268936 127.61798706 94.29694122 126.67449951 93.85829163 C116.69337755 89.22311133 106.67081689 84.68068557 96.64086914 80.15234375 C95.75237274 79.75099213 94.86387634 79.3496405 93.94845581 78.93612671 C76.77458904 71.17976435 59.57975686 63.47021407 42.37670898 55.77880859 C37.91421059 53.78332377 33.45323251 51.78446749 28.99298096 49.78396606 C27.24734095 49.00167287 25.50122351 48.22044395 23.75457764 47.44039917 C13.46623187 42.84504469 3.29175831 38.11130997 -6.73413086 32.96484375 C-6.83322226 28.90819428 -6.90570192 24.85201605 -6.95385742 20.79443359 C-6.97393728 19.41507695 -7.00120751 18.03580506 -7.03588867 16.65673828 C-7.08455903 14.67127396 -7.10499504 12.68518121 -7.12475586 10.69921875 C-7.14570313 9.50522461 -7.16665039 8.31123047 -7.18823242 7.08105469 C-6.73413086 3.96484375 -6.73413086 3.96484375 -5.0847168 1.48144531 C-2.73413086 -0.03515625 -2.73413086 -0.03515625 0 0 Z " fill="#080807" transform="translate(357.734130859375,525.03515625)"/>
<path d="M0 0 C1.22586823 0.5158239 1.22586823 0.5158239 2.47650146 1.04206848 C5.18796054 2.18397661 7.89667257 3.33225979 10.60546875 4.48046875 C13.49338356 5.69874312 16.381981 6.9153891 19.27061462 8.13195801 C21.29546799 8.98485667 23.32009132 9.83830164 25.34449768 10.69226074 C32.78155201 13.82782496 40.22949045 16.93645329 47.68359375 20.03125 C48.74539352 20.47231583 49.8071933 20.91338165 50.90116882 21.36781311 C55.05755467 23.09408452 59.21404047 24.82010369 63.37197876 26.54263306 C75.92630265 31.74499233 88.40524694 37.07971059 100.79296875 42.66796875 C97.70368767 45.1887299 94.62699933 46.75211073 90.96484375 48.3125 C89.20285645 49.06889771 89.20285645 49.06889771 87.40527344 49.84057617 C86.11783914 50.38720845 84.83040423 50.93383926 83.54296875 51.48046875 C81.49594823 52.35687002 79.44977999 53.2352417 77.40362549 54.11366272 C75.98588169 54.72214133 74.56786803 55.32999152 73.14959717 55.9372406 C66.57004419 58.75589265 60.01571163 61.63043539 53.46340942 64.51171875 C40.64907089 70.14172768 27.80958952 75.71453766 14.95495605 81.25186157 C13.06580263 82.0664037 11.17736526 82.8826087 9.28967285 83.70053101 C6.64304073 84.8467489 3.99377512 85.98665276 1.34375 87.125 C0.55247208 87.46910919 -0.23880585 87.81321838 -1.05406189 88.16775513 C-10.51786938 92.21311675 -10.51786938 92.21311675 -15.00146484 90.76611328 C-16.02578613 90.28255371 -17.05010742 89.79899414 -18.10546875 89.30078125 C-19.2869751 88.75349365 -20.46848145 88.20620605 -21.68579102 87.64233398 C-22.63387131 87.19215408 -22.63387131 87.19215408 -23.60110474 86.73287964 C-27.05689621 85.09317417 -30.53425927 83.50007371 -34.0078125 81.8984375 C-34.74658127 81.55621658 -35.48535004 81.21399567 -36.24650574 80.86140442 C-45.02658768 76.80355692 -53.89661206 72.95488619 -62.76953125 69.10546875 C-64.42598991 68.38535948 -66.08240276 67.66514482 -67.73876953 66.94482422 C-75.4787878 63.5805799 -83.22345946 60.2270845 -90.96875 56.875 C-91.65437515 56.57818832 -92.34000031 56.28137665 -93.04640198 55.97557068 C-96.21581679 54.60363402 -99.38577523 53.23300839 -102.55688477 51.86499023 C-109.47586055 48.87490267 -116.35797427 45.81501909 -123.20703125 42.66796875 C-123.20703125 42.00796875 -123.20703125 41.34796875 -123.20703125 40.66796875 C-122.33755859 40.31831055 -121.46808594 39.96865234 -120.57226562 39.60839844 C-101.856635 32.07586863 -83.18851495 24.43728492 -64.5741272 16.65768433 C-58.48892477 14.11549585 -52.40084574 11.58020372 -46.31266785 9.04515076 C-42.11453832 7.29696237 -37.91697312 5.54754681 -33.72314453 3.7890625 C-30.16132315 2.29637438 -26.59154549 0.8236179 -23.01953125 -0.64453125 C-22.05370117 -1.05292236 -21.08787109 -1.46131348 -20.09277344 -1.88208008 C-19.22942383 -2.23294678 -18.36607422 -2.58381348 -17.4765625 -2.9453125 C-16.40305542 -3.39064331 -16.40305542 -3.39064331 -15.30786133 -3.8449707 C-9.99330145 -5.07710864 -4.80131842 -2.04722936 0 0 Z " fill="#FCFCFC" transform="translate(527.20703125,183.33203125)"/>
<path d="M0 0 C3.41789465 1.76080932 6.86620289 3.46066738 10.30960083 5.17089844 C11.02294083 5.52725372 11.73628082 5.88360901 12.47123718 6.25076294 C20.02623162 10.01203724 27.70077442 13.49316144 35.39944458 16.94824219 C43.9801707 20.80208743 52.53392408 24.69473831 61.01663208 28.76074219 C61.7554512 29.11342163 62.49427032 29.46610107 63.25547791 29.82946777 C66.81403063 31.52816798 70.36684213 33.23712134 73.91091919 34.96582031 C75.18417247 35.57509961 76.4576777 36.1838528 77.73147583 36.79199219 C78.84111694 37.33017578 79.95075806 37.86835938 81.09402466 38.42285156 C84.16571448 39.52109769 85.02857316 39.67063209 87.96194458 38.44824219 C88.8331897 38.09028564 89.70443481 37.7323291 90.6020813 37.36352539 C92.10665894 36.68809692 92.10665894 36.68809692 93.64163208 35.99902344 C94.78172729 35.48823242 95.92182251 34.97744141 97.09646606 34.45117188 C98.34338146 33.88789278 99.5902049 33.3244101 100.83694458 32.76074219 C102.1442984 32.1724833 103.45167181 31.58426797 104.75906372 30.99609375 C113.67654397 26.9751903 122.54446736 22.85501532 131.39944458 18.69824219 C136.58268186 16.27239705 141.77137904 13.85836019 146.96194458 11.44824219 C147.75042786 11.08162476 148.53891113 10.71500732 149.35128784 10.33728027 C154.4881649 7.95116164 159.63331042 5.58420973 164.78839111 3.2376709 C166.47287203 2.46803511 168.15495939 1.69313653 169.83447266 0.91271973 C172.19097576 -0.18102859 174.55554215 -1.25514566 176.92288208 -2.32519531 C177.96483986 -2.81628281 177.96483986 -2.81628281 179.02784729 -3.31729126 C185.27723448 -6.09825885 190.70258755 -6.4802283 197.17483521 -4.26660156 C198.66141896 -3.68800058 200.1424308 -3.09492408 201.61819458 -2.48925781 C202.79980164 -2.02314087 202.79980164 -2.02314087 204.00527954 -1.54760742 C206.49610452 -0.56167392 208.97890628 0.44288157 211.46194458 1.44824219 C213.1593644 2.12397076 214.85727711 2.79846259 216.55569458 3.47167969 C220.69694745 5.11628911 224.83111647 6.7776307 228.96194458 8.44824219 C228.96194458 9.10824219 228.96194458 9.76824219 228.96194458 10.44824219 C227.80823364 10.898125 226.65452271 11.34800781 225.46585083 11.81152344 C215.00288758 15.92552172 204.67137004 20.27839678 194.39456177 24.83642578 C185.21118369 28.90778696 175.99787106 32.90609925 166.77444458 36.88574219 C156.10407282 41.49109556 145.43835893 46.10682361 134.78225708 50.74511719 C133.75233139 51.19335342 132.7224057 51.64158966 131.66127014 52.10340881 C125.65815783 54.71637872 119.65599831 57.33152553 113.65431213 59.94776917 C110.98539782 61.10838427 108.31353797 62.26197577 105.6411438 63.41455078 C102.8141379 64.63522114 100.00307867 65.88020951 97.20852661 67.17333984 C96.1693811 67.64175293 95.1302356 68.11016602 94.05960083 68.59277344 C93.22050171 68.98440674 92.38140259 69.37604004 91.51687622 69.77954102 C85.13287957 71.45042174 79.50287205 68.63233908 73.82913208 65.97558594 C73.05263306 65.62131027 72.27613403 65.26703461 71.47610474 64.90202332 C69.80214777 64.1374669 68.12997744 63.3689889 66.45944214 62.59698486 C61.94838408 60.51348015 57.42305759 58.46133903 52.89944458 56.40527344 C51.97630463 55.9848175 51.05316467 55.56436157 50.10205078 55.13116455 C41.3926314 51.17133688 32.62708703 47.34981337 23.83694458 43.57324219 C22.34897651 42.93337831 20.86102089 42.29348548 19.37307739 41.65356445 C17.06817148 40.66230897 14.76325001 39.67109092 12.45809937 38.68040466 C5.94526277 35.87859115 -0.55530351 33.04903384 -7.05368042 30.21386719 C-8.08020721 29.76627045 -9.10673401 29.31867371 -10.16436768 28.85751343 C-18.32432486 25.29932687 -18.32432486 25.29932687 -22.36526489 23.5322876 C-33.52167619 18.65444576 -44.69256341 13.87173152 -56.03805542 9.44824219 C-56.03805542 8.78824219 -56.03805542 8.12824219 -56.03805542 7.44824219 C-52.01847158 5.91671728 -47.99827093 4.38682578 -43.97750854 2.85839844 C-42.61178087 2.33898261 -41.24621821 1.81913267 -39.88082886 1.29882812 C-37.91024041 0.54799078 -35.9390499 -0.20124681 -33.96774292 -0.95019531 C-32.78422241 -1.40056152 -31.6007019 -1.85092773 -30.38131714 -2.31494141 C-18.02724752 -6.88524349 -11.71728623 -6.04132946 0 0 Z " fill="#FBFBFB" transform="translate(430.0380554199219,445.5517578125)"/>
<path d="M0 0 C5.03852813 1.6216358 9.96056058 3.30127603 14.78125 5.50390625 C16.38178223 6.22936646 16.38178223 6.22936646 18.01464844 6.96948242 C19.16481445 7.49517822 20.31498047 8.02087402 21.5 8.5625 C24.09760707 9.73997638 26.69712701 10.91319677 29.296875 12.0859375 C29.98742981 12.39776474 30.67798462 12.70959198 31.38946533 13.03086853 C40.14850663 16.979432 48.94981215 20.83175563 57.75 24.6875 C59.48429792 25.4477441 61.21859151 26.20799807 62.95288086 26.96826172 C66.49233286 28.51961723 70.03201325 30.07045051 73.57177734 31.62109375 C79.10770132 34.04662035 84.64194083 36.47597412 90.17578125 38.90625 C91.09247589 39.30882523 92.00917053 39.71140045 92.9536438 40.12617493 C94.7734242 40.92537864 96.59319766 41.72459819 98.41296387 42.52383423 C100.97483147 43.64899633 103.53671552 44.77412095 106.09863281 45.89916992 C106.90148712 46.25175369 107.70434143 46.60433746 108.53152466 46.96760559 C110.09796471 47.65520289 111.66459013 48.34237807 113.23141479 49.02909851 C117.02225713 50.69068927 120.81033382 52.35805721 124.59326172 54.03759766 C125.3249205 54.36113724 126.05657928 54.68467682 126.81040955 55.01802063 C128.18277801 55.62497153 129.55408338 56.23433445 130.92408752 56.84660339 C133.96392725 58.1878455 136.75867697 59.18966924 140 60 C140 73.53 140 87.06 140 101 C136.53018911 100.30603782 134.22607107 99.80877222 131.14477539 98.44042969 C130.41993958 98.12157303 129.69510376 97.80271637 128.94830322 97.47419739 C127.78473297 96.95329781 127.78473297 96.95329781 126.59765625 96.421875 C125.36604767 95.87795357 125.36604767 95.87795357 124.10955811 95.32304382 C121.42519032 94.13652453 118.74389549 92.94321906 116.0625 91.75 C113.24901007 90.50454582 110.43473735 89.26087272 107.6204071 88.01731873 C105.73629629 87.18468435 103.85243631 86.35148213 101.96882629 85.51771545 C94.26958449 82.11136779 86.54595691 78.76534716 78.8125 75.4375 C65.76235013 69.80756495 52.78849053 64.01241647 39.82275391 58.19116211 C29.25469385 53.44739501 18.66850849 48.74988441 8.04370117 44.13427734 C7.11533447 43.72902832 6.18696777 43.3237793 5.23046875 42.90625 C4.43020264 42.55884766 3.62993652 42.21144531 2.80541992 41.85351562 C1 41 1 41 0 40 C-0.08868299 37.04294679 -0.11520296 34.10934944 -0.09765625 31.15234375 C-0.0962413 30.2659169 -0.09482635 29.37949005 -0.09336853 28.46620178 C-0.08775215 25.62326746 -0.07519691 22.78041069 -0.0625 19.9375 C-0.05748711 18.01497509 -0.05292384 16.09244896 -0.04882812 14.16992188 C-0.03777741 9.44658451 -0.02050183 4.72330542 0 0 Z " fill="#FBFBFB" transform="translate(372,347)"/>
<path d="M0 0 C2.97 0 5.94 0 9 0 C9 4.29 9 8.58 9 13 C18.9 13 28.8 13 39 13 C39 14.98 39 16.96 39 19 C44.5930976 14.23991693 49.86877855 9.25404324 55 4 C58.40312738 5.05875074 61.01353231 6.00902154 64 8 C62.54359967 11.35239779 60.69745351 13.54820399 58.11328125 16.1171875 C56.9521582 17.27541016 56.9521582 17.27541016 55.76757812 18.45703125 C54.95740234 19.25496094 54.14722656 20.05289063 53.3125 20.875 C52.52166016 21.66519531 51.73082031 22.45539062 50.91601562 23.26953125 C46.40787841 27.74416455 41.84594139 31.84633595 37 36 C53.335 36.495 53.335 36.495 70 37 C70 40.3 70 43.6 70 47 C68.63907227 46.98839844 67.27814453 46.97679687 65.87597656 46.96484375 C60.77640417 46.93205713 55.67812974 46.95233251 50.57861328 46.98779297 C48.38102821 46.99585218 46.18334211 46.98994773 43.98583984 46.96923828 C40.8069719 46.9417969 37.63186591 46.96631037 34.453125 47 C33.4869928 46.9805835 32.5208606 46.96116699 31.52545166 46.94116211 C21.92983206 47.1393533 20.1814598 49.8790268 11 56 C26.18 56.33 41.36 56.66 57 57 C57 60.3 57 63.6 57 67 C37.86 67 18.72 67 -1 67 C-1.99 69.97 -2.98 72.94 -4 76 C14.81 76 33.62 76 53 76 C52.67 78.31 52.34 80.62 52 83 C51.8467627 84.08728394 51.8467627 84.08728394 51.69042969 85.1965332 C48.5885434 106.61364806 48.5885434 106.61364806 40.94921875 112.74609375 C34.20365149 116.7470617 25.57612119 115.51314682 18 115.3125 C16.3502942 115.28738662 14.7005516 115.26457881 13.05078125 115.24414062 C9.03293684 115.18938229 5.01687802 115.10328207 1 115 C0.67 111.7 0.34 108.4 0 105 C0.94319092 104.99589111 1.88638184 104.99178223 2.8581543 104.98754883 C6.37193676 104.96051141 9.88398682 104.91137159 13.3972168 104.84741211 C14.91501168 104.82427549 16.43296613 104.80984652 17.95092773 104.80444336 C20.1388643 104.79512078 22.32430687 104.75406849 24.51171875 104.70703125 C25.82615967 104.6913208 27.14060059 104.67561035 28.49487305 104.65942383 C32.03195255 104.21331104 32.03195255 104.21331104 34.78051758 102.26831055 C38.10115734 97.80204714 38.10115734 97.80204714 40 86 C20.53 86 1.06 86 -19 86 C-15.625 75.875 -15.625 75.875 -13.3125 71.4375 C-12.87550781 70.59058594 -12.43851563 69.74367188 -11.98828125 68.87109375 C-11.66214844 68.25363281 -11.33601562 67.63617187 -11 67 C-11.71019287 67.31751221 -12.42038574 67.63502441 -13.15209961 67.9621582 C-16.41197836 69.41662278 -19.67470111 70.86459876 -22.9375 72.3125 C-24.05447266 72.81201172 -25.17144531 73.31152344 -26.32226562 73.82617188 C-32.47592796 76.5511074 -38.57209074 79.00278111 -45 81 C-48.01905032 75.68647143 -48.01905032 75.68647143 -47.94360352 72.96777344 C-46.49211124 69.94085811 -44.40382232 69.50409204 -41.33984375 68.265625 C-40.16043213 67.77763428 -38.98102051 67.28964355 -37.76586914 66.78686523 C-36.82712448 66.4101619 -36.82712448 66.4101619 -35.86941528 66.02584839 C-32.64743916 64.73191744 -29.44597302 63.38897245 -26.2421875 62.05078125 C-25.29657707 61.65796715 -25.29657707 61.65796715 -24.3318634 61.25721741 C-15.22525991 57.45542569 -6.46369289 53.07821573 2 48 C-13.84 47.67 -29.68 47.34 -46 47 C-46 43.7 -46 40.4 -46 37 C-30.82 37 -15.64 37 0 37 C0 32.38 0 27.76 0 23 C-11.22 23 -22.44 23 -34 23 C-34 19.7 -34 16.4 -34 13 C-22.78 13 -11.56 13 0 13 C0 8.71 0 4.42 0 0 Z " fill="#070707" transform="translate(753,680)"/>
<path d="M0 0 C4.4838538 1.40638111 8.72293312 3.15203102 12.9765625 5.1328125 C13.98099648 5.59544746 13.98099648 5.59544746 15.00572205 6.06742859 C16.45360751 6.73437289 17.90091036 7.4025832 19.34768677 8.07192993 C23.29191348 9.89581039 27.24143129 11.70814016 31.19140625 13.51953125 C32.00804245 13.89407944 32.82467865 14.26862762 33.6660614 14.65452576 C41.9355521 18.44027571 50.24494441 22.13384164 58.5625 25.8125 C69.93694173 30.84399346 81.28398878 35.9309505 92.60668945 41.07788086 C107.50963847 47.85213462 122.42590591 54.59940395 137.41946411 61.17114258 C139.04448542 61.88510742 140.66779206 62.60298893 142.28927612 63.32495117 C144.51885343 64.31640441 146.75436241 65.29296098 148.9921875 66.265625 C149.97504982 66.70778351 149.97504982 66.70778351 150.97776794 67.15887451 C154.38167338 68.61822903 154.38167338 68.61822903 158.02514648 68.85400391 C158.67684814 68.57218262 159.3285498 68.29036133 160 68 C161.49309692 67.36602295 161.49309692 67.36602295 163.01635742 66.71923828 C164.20076416 66.17509277 165.3851709 65.63094727 166.60546875 65.0703125 C167.26470337 64.76849564 167.92393799 64.46667877 168.60314941 64.15571594 C170.79953725 63.14893222 172.99354087 62.13706418 175.1875 61.125 C176.7464042 60.40872559 178.30540696 59.69266565 179.86450195 58.97680664 C184.91237822 56.65706784 189.95645355 54.32913447 195 52 C195.84965332 51.60782288 196.69930664 51.21564575 197.57470703 50.81158447 C215.25855294 42.64861586 232.92789453 34.45560469 250.5526123 26.16567993 C261.59485446 20.97351426 272.65536896 15.82240402 283.75292969 10.74938965 C285.18673909 10.0934555 286.6198688 9.43603315 288.05224609 8.77697754 C295.26050354 5.46297904 302.39067141 2.30535092 310 0 C310 4.62 310 9.24 310 14 C297.78249334 20.66546238 285.34949742 26.71424942 272.70498657 32.52528381 C272.09206757 32.80697922 271.47914856 33.08867462 270.84765625 33.37890625 C270.22386078 33.66547592 269.60006531 33.95204559 268.95736694 34.24729919 C260.94248199 37.9363222 252.97375474 41.72315187 245 45.5 C233.30597217 51.03531719 221.59467273 56.52851734 209.84741211 61.95019531 C202.87412468 65.17678479 195.92868609 68.45656849 188.99609375 71.76953125 C187.25179714 72.60165809 185.50749375 73.43377071 183.76318359 74.26586914 C180.34772785 75.89556137 176.93594146 77.53264251 173.52587891 79.17358398 C171.95618048 79.92327777 170.38636192 80.67272007 168.81640625 81.421875 C167.74174355 81.94277458 167.74174355 81.94277458 166.64537048 82.47419739 C157.8718757 86.64237591 157.8718757 86.64237591 152.79077148 84.89868164 C151.56110576 84.33296626 150.33821255 83.75238384 149.12109375 83.16015625 C148.4499202 82.84744278 147.77874664 82.53472931 147.0872345 82.21253967 C145.63101987 81.53231632 144.17767505 80.84592293 142.72692871 80.15411377 C139.59454677 78.66057468 136.44864053 77.19660557 133.30319214 75.73083496 C131.65920714 74.96450146 130.01592583 74.1966567 128.37332153 73.42736816 C120.78067469 69.87649367 113.12693596 66.47306157 105.45562744 63.09631348 C91.92695679 57.13856201 78.47438786 51.02845316 65.0625 44.8125 C44.67294284 35.36282346 24.22617976 26.04614534 3.578125 17.171875 C1 16 1 16 0 15 C-0.07313567 12.46950598 -0.09247527 9.96695163 -0.0625 7.4375 C-0.05798828 6.72658203 -0.05347656 6.01566406 -0.04882812 5.28320312 C-0.03700864 3.52209987 -0.01907263 1.76103964 0 0 Z " fill="#F9F8F8" transform="translate(361,537)"/>
<path d="M0 0 C0.02505615 1.07483643 0.0501123 2.14967285 0.07592773 3.25708008 C0.17007495 7.24353022 0.27027785 11.22980909 0.37231445 15.21606445 C0.41563562 16.94160965 0.45731273 18.66719693 0.49731445 20.39282227 C0.55508526 22.87268764 0.61876003 25.35234172 0.68359375 27.83203125 C0.70030624 28.60400345 0.71701874 29.37597565 0.73423767 30.17134094 C0.82227895 33.35182933 0.98745195 35.96235584 2 39 C-2.13986128 40.94013301 -6.28319776 42.87269098 -10.42822266 44.80175781 C-12.21240296 45.63304288 -13.99588361 46.46583064 -15.77880859 47.29980469 C-28.8446447 53.40800201 -41.97025911 59.34208446 -55.21893311 65.04351807 C-66.24219433 69.78729907 -77.22327941 74.62132544 -88.1875 79.5 C-88.95076599 79.83938599 -89.71403198 80.17877197 -90.50042725 80.52844238 C-92.70243424 81.50781354 -94.90404694 82.48806425 -97.10546875 83.46875 C-98.13818909 83.9284317 -98.13818909 83.9284317 -99.19177246 84.3973999 C-104.14664426 86.60731291 -109.07655621 88.86807509 -113.98950195 91.16992188 C-116 92 -116 92 -118 92 C-118 78.47 -118 64.94 -118 51 C-104.57740833 44.81228044 -91.08040827 38.85522762 -77.48519897 33.0614624 C-63.09971869 26.92878671 -48.77640527 20.65981492 -34.47143555 14.34179688 C-26.12008347 10.6573509 -17.75205246 7.01770981 -9.34375 3.46484375 C-8.52112671 3.11627823 -7.69850342 2.76771271 -6.85095215 2.40858459 C-1.12173103 0 -1.12173103 0 0 0 Z " fill="#FBFBFB" transform="translate(639,357)"/>
<path d="M0 0 C6.03540995 2.01180332 11.66649115 4.0613873 17.3984375 6.703125 C18.17820953 7.0575769 18.95798157 7.41202881 19.76138306 7.77722168 C21.43220314 8.53672472 23.10221805 9.29800119 24.77148438 10.06091309 C38.77703303 16.45757707 52.8324563 22.7206658 67 28.75 C68.41960395 29.35463711 69.83920034 29.95929198 71.25878906 30.56396484 C72.30818665 31.01094223 72.30818665 31.01094223 73.37878418 31.46694946 C74.07620728 31.76402802 74.77363037 32.06110657 75.4921875 32.3671875 C76.18477661 32.66209076 76.87736572 32.95699402 77.59094238 33.26083374 C85.06602425 36.44747547 92.52024201 39.68166088 99.96728516 42.93322754 C101.39592301 43.55678157 102.82495453 44.17943448 104.25439453 44.80114746 C106.21492637 45.65409255 108.17407728 46.51012616 110.1328125 47.3671875 C111.24543457 47.85300293 112.35805664 48.33881836 113.50439453 48.83935547 C116 50 116 50 117 51 C117.08861992 53.8116338 117.11522355 56.59858255 117.09765625 59.41015625 C117.0962413 60.25219101 117.09482635 61.09422577 117.09336853 61.96177673 C117.08775263 64.66205335 117.07519748 67.36224828 117.0625 70.0625 C117.05748705 71.88867068 117.05292379 73.71484266 117.04882812 75.54101562 C117.03777804 80.02737542 117.02050279 84.51367384 117 89 C112.32602563 88.32813046 108.25795212 86.50945013 103.984375 84.59765625 C103.19301651 84.2485318 102.40165802 83.89940735 101.58631897 83.53970337 C98.97216046 82.38521547 96.36114181 81.22379267 93.75 80.0625 C91.91259131 79.24986903 90.07494085 78.4377845 88.23706055 77.6262207 C84.40821788 75.93494401 80.58043481 74.24130239 76.75341797 72.54589844 C68.63859734 68.95271704 60.51306652 65.3839608 52.38656616 61.81729126 C49.82432601 60.69269059 47.26237588 59.56743105 44.70043945 58.44213867 C29.82240948 51.90984457 14.91566621 45.4459663 0 39 C0 26.13 0 13.26 0 0 Z " fill="#FAFAFA" transform="translate(395,233)"/>
<path d="M0 0 C14 0 14 0 17.5 2.61328125 C18.78540039 4.36743164 18.78540039 4.36743164 20 6.3125 C20.47236084 6.97822021 20.94472168 7.64394043 21.43139648 8.32983398 C22.45041076 9.7701667 23.45050754 11.22403518 24.43310547 12.68945312 C26.61659681 15.9092353 28.93971331 19.01789192 31.26123047 22.13891602 C33.06561427 24.5666902 34.85194119 27.00700798 36.63671875 29.44921875 C39.47855794 33.31658773 42.39131689 37.11637086 45.375 40.875 C50.19874199 46.95955563 54.95864272 53.09136737 59.6875 59.25 C60.4079248 60.18054199 61.12834961 61.11108398 61.87060547 62.06982422 C62.53592285 62.93881348 63.20124023 63.80780273 63.88671875 64.703125 C64.48701904 65.48333008 65.08731934 66.26353516 65.70581055 67.06738281 C67 69 67 69 67 71 C67.66 71 68.32 71 69 71 C69 47.9 69 24.8 69 1 C73.95 1 78.9 1 84 1 C84 33.67 84 66.34 84 100 C70 100 70 100 66.2109375 96.84375 C65.21878985 95.42751505 64.27470912 93.97668612 63.375 92.5 C62.30246067 90.93073162 61.22953492 89.36172728 60.15625 87.79296875 C59.63289063 86.99165527 59.10953125 86.1903418 58.5703125 85.36474609 C56.15735234 81.73105019 53.51693629 78.281217 50.875 74.8125 C49.87973393 73.48342804 48.88493697 72.15400465 47.890625 70.82421875 C44.31349732 66.07103273 40.63422791 61.40093928 36.9453125 56.734375 C33.44044198 52.29924432 29.97011474 47.83734367 26.5 43.375 C25.90010254 42.60430176 25.30020508 41.83360352 24.68212891 41.03955078 C24.11671387 40.3123584 23.55129883 39.58516602 22.96875 38.8359375 C22.46794922 38.19188965 21.96714844 37.5478418 21.45117188 36.88427734 C19.95052954 34.93576497 18.4756375 32.96751667 17 31 C16.67 53.77 16.34 76.54 16 100 C10.72 100 5.44 100 0 100 C0 67 0 34 0 0 Z " fill="#020202" transform="translate(304,690)"/>
<path d="M0 0 C0 12.54 0 25.08 0 38 C-4.351875 39.876875 -8.70375 41.75375 -13.1875 43.6875 C-27.34026452 49.80866385 -41.4159143 56.08901368 -55.47705078 62.41796875 C-62.28353985 65.47452101 -69.10305403 68.50179453 -75.92456055 71.5246582 C-81.17905231 73.85372868 -86.43002657 76.18977651 -91.66903687 78.55345154 C-94.17416884 79.68325956 -96.68110291 80.80903667 -99.18817139 81.93453979 C-100.96396396 82.73378105 -102.73713943 83.538829 -104.51025391 84.34399414 C-105.57937012 84.82344482 -106.64848633 85.30289551 -107.75 85.796875 C-109.16539062 86.43641113 -109.16539062 86.43641113 -110.609375 87.08886719 C-113 88 -113 88 -116 88 C-116 75.46 -116 62.92 -116 50 C-98.79086712 41.96907132 -98.79086712 41.96907132 -92.4453125 39.23046875 C-91.34547531 38.75253876 -91.34547531 38.75253876 -90.22341919 38.26495361 C-87.85803568 37.23738346 -85.49151468 36.21246194 -83.125 35.1875 C-79.68441687 33.69380981 -76.24451176 32.19856184 -72.8046875 30.703125 C-71.92417725 30.3205101 -71.04366699 29.9378952 -70.13647461 29.54368591 C-63.75358526 26.7681753 -57.37864917 23.97493118 -51.0078125 21.171875 C-49.65219711 20.57558037 -49.65219711 20.57558037 -48.26919556 19.96723938 C-44.75545506 18.4212765 -41.24186036 16.8749922 -37.72955322 15.32577515 C-28.64986196 11.32106282 -19.55544732 7.35316312 -10.421875 3.47265625 C-9.19902802 2.94906776 -9.19902802 2.94906776 -7.95147705 2.41490173 C-2.23358451 0 -2.23358451 0 0 0 Z " fill="#FAFAFA" transform="translate(637,234)"/>
<path d="M0 0 C5.94 0 11.88 0 18 0 C18.50635986 1.26851807 19.01271973 2.53703613 19.53442383 3.84399414 C21.51032129 8.79309412 23.4874394 13.74170573 25.46496582 18.69015503 C26.36175751 20.93446987 27.25832407 23.17887469 28.15466309 25.42337036 C33.25376229 38.19005236 38.37382932 50.94752599 43.55859375 63.6796875 C43.99883377 64.76223312 44.43907379 65.84477875 44.89265442 66.96012878 C47.0080111 72.1615794 49.12828206 77.36092074 51.25708008 82.55688477 C52.0205819 84.43235802 52.7838595 86.30792259 53.546875 88.18359375 C54.07510109 89.46452408 54.07510109 89.46452408 54.61399841 90.77133179 C55.08882408 91.94304428 55.08882408 91.94304428 55.57324219 93.13842773 C55.85045105 93.81590561 56.12765991 94.49338348 56.41326904 95.19139099 C57 97 57 97 57 100 C51.06 100 45.12 100 39 100 C38.071875 97.73125 37.14375 95.4625 36.1875 93.125 C35.90156982 92.43293457 35.61563965 91.74086914 35.32104492 91.02783203 C33.1731106 85.71479082 31.66898407 80.56328025 30 75 C16.14 75.33 2.28 75.66 -12 76 C-14.97 83.92 -17.94 91.84 -21 100 C-26.94 100 -32.88 100 -39 100 C-36.66435894 91.62995526 -33.58356163 83.66803026 -30.3125 75.625 C-29.77357422 74.29070213 -29.23508575 72.95622755 -28.69702148 71.62158203 C-27.62871236 68.97285082 -26.55835033 66.32496483 -25.48632812 63.67773438 C-23.19489921 58.00787807 -20.93455307 52.32570402 -18.67504883 46.64306641 C-17.03489077 42.53451011 -15.35262047 38.44637401 -13.640625 34.3671875 C-10.71660303 27.36972721 -7.94838538 20.31302839 -5.1875 13.25 C-4.68045635 11.95568301 -4.17329547 10.66141194 -3.66601562 9.3671875 C-2.44286468 6.24524032 -1.22126885 3.12268392 0 0 Z " fill="#040404" transform="translate(234,690)"/>
<path d="M0 0 C3.96 0 7.92 0 12 0 C12 7.26 12 14.52 12 22 C23.22 22 34.44 22 46 22 C46 25.63 46 29.26 46 33 C34.78 33 23.56 33 12 33 C12 40.26 12 47.52 12 55 C24.87 55 37.74 55 51 55 C51 58.63 51 62.26 51 66 C35.82 66 20.64 66 5 66 C4.34 67.65 3.68 69.3 3 71 C1.81497166 73.51470803 0.61015031 76.01032448 -0.625 78.5 C-0.93050781 79.13164063 -1.23601563 79.76328125 -1.55078125 80.4140625 C-4.92013472 87.20603984 -8.97586585 93.58403574 -13 100 C-11.55548462 99.86368164 -11.55548462 99.86368164 -10.08178711 99.72460938 C-6.48329266 99.38589013 -2.88441041 99.05145442 0.71459961 98.71826172 C2.26744179 98.57390892 3.82017878 98.42841965 5.37280273 98.28173828 C7.61414832 98.07019555 9.85584976 97.86284421 12.09765625 97.65625 C12.78336197 97.59062866 13.46906769 97.52500732 14.17555237 97.45739746 C18.464386 97.06719123 22.69464661 96.94125726 27 97 C25.8989859 95.08152063 24.79405904 93.16528646 23.6875 91.25 C23.07261719 90.18265625 22.45773437 89.1153125 21.82421875 88.015625 C20.32904649 85.54394837 18.78623484 83.26439616 17 81 C18.49097658 77.2047869 20.75700849 75.38957269 24 73 C27.31890061 74.38313336 28.81121564 75.74833478 30.69921875 78.7890625 C31.18237549 79.55863281 31.66553223 80.32820312 32.16333008 81.12109375 C32.66630615 81.94738281 33.16928223 82.77367187 33.6875 83.625 C34.20916748 84.46933594 34.73083496 85.31367187 35.26831055 86.18359375 C36.86149141 88.77978037 38.43457429 91.38699656 40 94 C40.47856445 94.79631836 40.95712891 95.59263672 41.45019531 96.41308594 C42.75397166 98.59967591 44.03824848 100.79609777 45.3125 103 C45.70332764 103.66338379 46.09415527 104.32676758 46.49682617 105.01025391 C47.4124291 106.63021573 48.21713692 108.31188554 49 110 C48 113 48 113 45.1875 114.75 C42 116 42 116 39.875 116.0625 C38 115 38 115 36.3671875 111.96484375 C34.24666752 108.64523668 34.24666752 108.64523668 30.453125 108.34375 C29.05123786 108.36226676 27.64952338 108.41654507 26.25 108.5 C25.49267578 108.52336426 24.73535156 108.54672852 23.95507812 108.57080078 C17.78289655 108.81619768 11.69285536 109.56703924 5.578125 110.42578125 C-3.20957239 111.60106594 -12.08639171 112.09379325 -20.92382812 112.76220703 C-25.9512098 113.15083162 -30.97561566 113.57459318 -36 114 C-37.68610848 110.10336348 -38.19834137 107.26433935 -38 103 C-37.443125 102.98324219 -36.88625 102.96648437 -36.3125 102.94921875 C-32.3764856 102.50375766 -29.81320737 101.79626555 -26.9375 98.98046875 C-19.40899909 88.85645643 -13.62151166 77.24302331 -8 66 C-17.57 66 -27.14 66 -37 66 C-37 62.37 -37 58.74 -37 55 C-24.46 55 -11.92 55 1 55 C1 47.74 1 40.48 1 33 C-9.56 33 -20.12 33 -31 33 C-31 29.37 -31 25.74 -31 22 C-20.77 22 -10.54 22 0 22 C0 14.74 0 7.48 0 0 Z " fill="#080808" transform="translate(631,679)"/>
<path d="M0 0 C0.69718643 0.31316162 1.39437286 0.62632324 2.11268616 0.94897461 C4.39523243 1.97622185 6.67207822 3.01551976 8.94921875 4.0546875 C10.54658728 4.77557585 12.14441364 5.49545049 13.74267578 6.21435547 C17.05237521 7.70355927 20.36040535 9.19638458 23.66748047 10.69140625 C30.7090562 13.8692418 37.77685588 16.98741454 44.84701538 20.10101318 C47.61231278 21.31928315 50.3762103 22.54070661 53.1396637 23.76315308 C54.430527 24.33135062 55.7231734 24.89551674 57.01768494 25.45535278 C60.18855553 26.8284136 63.31233587 28.25050666 66.40332031 29.79589844 C73.49491383 33.51448092 73.49491383 33.51448092 81.17578125 33.1640625 C82.68015606 32.45506454 84.16594088 31.70598263 85.63671875 30.9296875 C87.70341014 30.05132648 89.77411591 29.18238087 91.84765625 28.3203125 C93.61221625 27.5498376 95.37670862 26.77919488 97.13903809 26.00363159 C99.73231056 24.86264072 102.3294933 23.73067986 104.92651367 22.59825134 C106.31291441 21.99371208 107.69914209 21.38877579 109.08520508 20.78346252 C116.73981437 17.44243618 124.41238985 14.14350593 132.08868408 10.85266113 C134.33746492 9.88830918 136.58549456 8.92222157 138.83349609 7.95605469 C145.39979268 5.13858692 151.96820394 2.34294352 158.62988281 -0.24389648 C160.68038843 -1.04755051 160.68038843 -1.04755051 162.70361328 -2.18603516 C167.08601793 -4.19071685 171.92945194 -2.05238921 176.22265625 -0.51171875 C177.82205466 0.10676783 179.41839518 0.73321516 181.01171875 1.3671875 C181.83027344 1.67978516 182.64882813 1.99238281 183.4921875 2.31445312 C189.50901923 4.67428845 189.50901923 4.67428845 190.63671875 6.9296875 C189.76611816 7.28981934 188.89551758 7.64995117 187.99853516 8.02099609 C169.57796795 15.64620489 151.20263831 23.36869443 132.88671875 31.2421875 C121.44579105 36.15928227 110.00591245 41.07549273 98.51171875 45.8671875 C97.59551758 46.24979736 96.67931641 46.63240723 95.73535156 47.02661133 C93.37383509 48.00634604 91.00642374 48.96997269 88.63671875 49.9296875 C87.56212402 50.38239014 87.56212402 50.38239014 86.46582031 50.84423828 C81.38410684 52.90351821 77.32664912 53.82162373 72.0324707 52.06616211 C71.15550537 51.65889893 70.27854004 51.25163574 69.375 50.83203125 C68.35760742 50.36837158 67.34021484 49.90471191 66.29199219 49.42700195 C65.18887695 48.91226318 64.08576172 48.39752441 62.94921875 47.8671875 C60.5036419 46.7528426 58.05712528 45.64079044 55.609375 44.53125 C54.96604218 44.23839615 54.32270935 43.9455423 53.65988159 43.64381409 C46.83653158 40.54570308 39.94983414 37.60062422 33.05517578 34.66546631 C20.0286551 29.11907534 7.02558434 23.51911626 -5.95690918 17.87045288 C-7.66872062 17.12586042 -9.38087207 16.38204908 -11.09338379 15.6390686 C-13.49032104 14.59885877 -15.88595779 13.55571009 -18.28125 12.51171875 C-18.98189072 12.20814453 -19.68253143 11.90457031 -20.40440369 11.59179688 C-25.13986609 9.5220984 -29.75592363 7.2711843 -34.36328125 4.9296875 C-30.82995581 1.89851425 -26.84998455 0.31521082 -22.55078125 -1.3203125 C-21.86435547 -1.60132813 -21.17792969 -1.88234375 -20.47070312 -2.171875 C-19.78943359 -2.43226563 -19.10816406 -2.69265625 -18.40625 -2.9609375 C-17.7980542 -3.19844727 -17.1898584 -3.43595703 -16.56323242 -3.68066406 C-10.61399386 -4.7343745 -5.30169366 -2.44901012 0 0 Z " fill="#F9F9F9" transform="translate(438.36328125,325.0703125)"/>
<path d="M0 0 C5.28 0 10.56 0 16 0 C16.33 14.85 16.66 29.7 17 45 C19.97 41.37 22.94 37.74 26 34 C27.64607975 32.14816028 29.3077609 30.30975571 31 28.5 C35.10318839 24.04166702 38.95243161 19.435018 42.75390625 14.71875 C45.79920468 11.03261485 49.01027892 7.5114161 52.25 3.99609375 C54.04781979 2.11549325 54.04781979 2.11549325 55 0 C61.6 0 68.2 0 75 0 C73.43612837 3.12774326 72.56203472 4.69216497 70.27734375 7.06640625 C69.74359131 7.62851807 69.20983887 8.19062988 68.65991211 8.76977539 C68.09151611 9.36137451 67.52312012 9.95297363 66.9375 10.5625 C62.16433494 15.60815534 57.67191934 20.76843945 53.33203125 26.1953125 C50.05953866 30.13107411 46.58085156 33.86111805 43.07202148 37.58618164 C41.70185825 39.04552037 40.35015358 40.52212919 39 42 C38.36835938 42.68191406 37.73671875 43.36382813 37.0859375 44.06640625 C35.79481191 45.98526051 35.79481191 45.98526051 36.0390625 48.44140625 C37.25979276 51.69172463 38.94929503 53.45440453 41.375 55.9375 C45.31472107 60.07773939 48.9483864 64.3487347 52.4375 68.875 C56.08537784 73.59338745 59.81352292 78.21510467 63.6875 82.75 C77 98.34748134 77 98.34748134 77 100 C58.7048839 101.78922282 58.7048839 101.78922282 52.98828125 98.0078125 C50.72707579 95.12383511 48.88439469 92.14190908 47 89 C45.24710431 86.76198806 43.37525157 84.63576518 41.5 82.5 C40.5613823 81.39919409 39.62515779 80.29634285 38.69140625 79.19140625 C38.01102295 78.38727295 38.01102295 78.38727295 37.31689453 77.56689453 C35.33481142 75.20853165 33.38490544 72.82453136 31.4375 70.4375 C26.66627612 64.59107073 21.83096707 58.79716048 17 53 C16.67 68.51 16.34 84.02 16 100 C10.72 100 5.44 100 0 100 C0 67 0 34 0 0 Z " fill="#030303" transform="translate(411,690)"/>
<path d="M0 0 C5.28 0 10.56 0 16 0 C16 33 16 66 16 100 C10.72 100 5.44 100 0 100 C0 67 0 34 0 0 Z " fill="#020202" transform="translate(503,690)"/>
<path d="M0 0 C23.84519465 0 23.84519465 0 31.55859375 7.35546875 C36.41549374 12.89680993 36.53584221 18.65509897 36.34765625 25.7734375 C35.69351889 31.84442021 33.73727949 36.77249877 29.125 40.875 C18.38286928 48.17964889 15.91183369 46 0 46 C0 30.82 0 15.64 0 0 Z " fill="#0E0E0E" transform="translate(637,826)"/>
<path d="M0 0 C2.31 0 4.62 0 7 0 C10.90214167 7.29571037 13.74228952 14.95005174 16.625 22.6875 C17.36129479 24.65119435 18.09879797 26.61443139 18.83651733 28.57759094 C19.50184541 30.35006989 20.16433715 32.12361275 20.82666016 33.8972168 C21.56619779 35.85285221 22.33781633 37.79693489 23.15380859 39.72192383 C24 42 24 42 24 45 C21.36 45 18.72 45 16 45 C15.3291288 43.3767313 14.66342971 41.75132422 14 40.125 C13.62875 39.22007812 13.2575 38.31515625 12.875 37.3828125 C12 35 12 35 12 33 C6.06 33 0.12 33 -6 33 C-6.474375 34.60875 -6.94875 36.2175 -7.4375 37.875 C-8.875 42.75 -8.875 42.75 -10 45 C-12.64 45 -15.28 45 -18 45 C-15.3701897 36.51674098 -11.90332565 28.41504121 -8.4375 20.25 C-7.55023933 18.15099477 -6.66392215 16.05159345 -5.77784729 13.9520874 C-4.97770797 12.05757546 -4.17532071 10.16401338 -3.37280273 8.27050781 C-2.21993041 5.523953 -1.09520628 2.76993875 0 0 Z " fill="#0C0C0B" transform="translate(443,826)"/>
<path d="M0 0 C1.7634375 -0.01160156 1.7634375 -0.01160156 3.5625 -0.0234375 C9.37088662 0.64980731 13.1456409 3.07590716 17 7.375 C15.95125002 9.99687494 15.35068687 11.16871361 12.875 12.625 C12.25625 12.8725 11.6375 13.12 11 13.375 C10.79375 12.776875 10.5875 12.17875 10.375 11.5625 C8.41076615 8.43758251 6.42634728 7.66796124 3 6.375 C-0.38241127 5.89179839 -2.74922061 5.61780172 -5.7421875 7.4296875 C-7.93854609 9.20569038 -9.72725284 10.82950567 -11 13.375 C-11.29025692 16.45132301 -11.27787626 19.53656243 -11.3125 22.625 C-11.34150391 23.47191406 -11.37050781 24.31882812 -11.40039062 25.19140625 C-11.45817212 30.90732928 -10.75347947 34.00174377 -7 38.375 C-4.44080818 39.65459591 -2.54515972 39.54316536 0.3125 39.5625 C1.25738281 39.57667969 2.20226562 39.59085938 3.17578125 39.60546875 C6.14406882 39.36324335 8.30867165 38.61526607 11 37.375 C11.33 34.075 11.66 30.775 12 27.375 C8.37 27.375 4.74 27.375 1 27.375 C1 25.395 1 23.415 1 21.375 C6.94 21.375 12.88 21.375 19 21.375 C19.21665549 24.44127706 19.37459318 27.49227238 19.5 30.5625 C19.60054688 31.85897461 19.60054688 31.85897461 19.703125 33.18164062 C19.78325932 35.79602267 19.73963302 37.86192871 19 40.375 C13.75086801 45.68072229 7.27580075 46.54140837 0.125 46.6875 C-5.46842675 46.63533333 -8.84438071 46.42406495 -13 42.375 C-18.90816471 36.30040811 -20.34820257 31.1562309 -20.3125 22.9375 C-20.32861328 22.19951172 -20.34472656 21.46152344 -20.36132812 20.70117188 C-20.36761078 13.63318072 -17.88062751 8.53452051 -13 3.375 C-8.53199646 0.69161148 -5.19000344 -0.03414476 0 0 Z " fill="#0E0E0E" transform="translate(402,825.625)"/>
<path d="M0 0 C2.31 0 4.62 0 7 0 C7.01458252 0.97348389 7.02916504 1.94696777 7.04418945 2.94995117 C7.10233296 6.57515476 7.17956377 10.1997476 7.26245117 13.82446289 C7.29562532 15.39076801 7.32368058 16.95719051 7.34643555 18.52368164 C7.38012116 20.78061763 7.43244049 23.03648526 7.48828125 25.29296875 C7.49467117 25.98899704 7.5010611 26.68502533 7.50764465 27.40214539 C7.64968282 32.14035203 8.5891149 35.5891149 12 39 C14.22716166 39.27740465 14.22716166 39.27740465 16.8125 39.3125 C17.68519531 39.34988281 18.55789063 39.38726563 19.45703125 39.42578125 C22.9334178 38.84371346 23.87360534 37.80213344 26 35 C26.41786702 32.19303997 26.60474313 29.76148059 26.609375 26.953125 C26.62591125 26.18192322 26.64244751 25.41072144 26.65948486 24.6161499 C26.70794593 22.16068546 26.72933037 19.70584016 26.75 17.25 C26.77816146 15.58200013 26.80808914 13.91402908 26.83984375 12.24609375 C26.91370372 8.1641135 26.96328936 4.08247655 27 0 C29.64 0 32.28 0 35 0 C35.09972601 4.53484864 35.17186655 9.0690432 35.21972656 13.60473633 C35.23970121 15.14391211 35.26689097 16.68301338 35.30175781 18.22192383 C35.68719574 35.68566278 35.68719574 35.68566278 31 42 C25.69561369 46.46483775 19.72775299 46.61628045 12.99609375 46.3828125 C7.63961632 45.69841252 5.17699093 43.4489574 1.87207031 39.38037109 C-0.4628598 35.16422055 -0.51939382 32.25746629 -0.390625 27.5390625 C-0.38496521 26.74849457 -0.37930542 25.95792664 -0.37347412 25.1434021 C-0.35121487 22.63663273 -0.30104153 20.13133187 -0.25 17.625 C-0.22992133 15.9179895 -0.21167296 14.21095643 -0.1953125 12.50390625 C-0.15138484 8.33537804 -0.08243296 4.16793736 0 0 Z " fill="#0D0D0D" transform="translate(592,826)"/>
<path d="M0 0 C9.24 0 18.48 0 28 0 C28 2.31 28 4.62 28 7 C21.07 7 14.14 7 7 7 C7 10.96 7 14.92 7 19 C12.94 19 18.88 19 25 19 C25 20.98 25 22.96 25 25 C19.06 25 13.12 25 7 25 C7 29.62 7 34.24 7 39 C13.93 39 20.86 39 28 39 C28 41.31 28 43.62 28 46 C18.76 46 9.52 46 0 46 C0 30.82 0 15.64 0 0 Z " fill="#131312" transform="translate(346,826)"/>
<path d="M0 0 C4.27001869 2.47015616 4.27001869 2.47015616 5.6875 4.5546875 C5.625 6.6171875 5.625 6.6171875 4.6875 8.5546875 C2.625 9.8046875 2.625 9.8046875 0.6875 10.5546875 C0.089375 9.7296875 -0.50875 8.9046875 -1.125 8.0546875 C-3.13202225 5.99530815 -4.15787054 5.57536342 -7.05859375 5.1875 C-9.84420988 5.18025522 -12.54557481 5.22971306 -15.3125 5.5546875 C-16.72827477 6.73893076 -16.72827477 6.73893076 -16.375 10.1171875 C-16.354375 11.2515625 -16.33375 12.3859375 -16.3125 13.5546875 C-11.78532623 15.66308758 -7.37716639 17.57834416 -2.5625 18.9296875 C2.18443802 20.48428892 4.14976573 22.21598052 6.6875 26.5546875 C7.77571252 31.84783774 6.63405256 36.02962465 3.6875 40.5546875 C-0.72540627 44.55388381 -4.81531651 44.75800453 -10.625 44.8671875 C-11.92050781 44.90457031 -13.21601562 44.94195313 -14.55078125 44.98046875 C-18.90008598 44.48817984 -20.95489299 43.30723091 -24.3125 40.5546875 C-26.3125 37.5546875 -26.3125 37.5546875 -26.25 34.9921875 C-25.3125 32.5546875 -25.3125 32.5546875 -22.75 31.2421875 C-21.5434375 30.901875 -21.5434375 30.901875 -20.3125 30.5546875 C-19.838125 31.5240625 -19.36375 32.4934375 -18.875 33.4921875 C-17.61056053 36.35946187 -17.61056053 36.35946187 -16.3125 37.5546875 C-14.52412378 37.67993209 -12.73021786 37.73042426 -10.9375 37.7421875 C-9.96039062 37.75636719 -8.98328125 37.77054688 -7.9765625 37.78515625 C-5.08462978 37.75010733 -5.08462978 37.75010733 -2.3125 35.5546875 C-1.72907647 32.09699559 -1.72907647 32.09699559 -2.3125 28.5546875 C-5.36710776 25.52945097 -8.65598992 24.77870566 -12.75 23.7421875 C-20.10404992 21.52770955 -20.10404992 21.52770955 -22.625 18.9921875 C-25.03936808 14.07403029 -25.50401782 9.91651769 -24.3125 4.5546875 C-19.8004933 -3.93372798 -7.75380476 -3.38314595 0 0 Z " fill="#0E0D0D" transform="translate(545.3125,827.4453125)"/>
<path d="M0 0 C2.87402808 1.43701404 2.94687393 3.14011499 3.98828125 6.14453125 C4.36533203 7.21509766 4.74238281 8.28566406 5.13085938 9.38867188 C5.71577148 11.0834668 5.71577148 11.0834668 6.3125 12.8125 C8.99163618 20.51216396 11.79041492 28.07885268 15.07104492 35.5456543 C16 38 16 38 16 41 C5.77 41 -4.46 41 -15 41 C-11.6229653 28.61753943 -11.6229653 28.61753943 -9.58984375 23.37890625 C-9.15736328 22.25935547 -8.72488281 21.13980469 -8.27929688 19.98632812 C-7.83650391 18.85646484 -7.39371094 17.72660156 -6.9375 16.5625 C-6.49083984 15.40556641 -6.04417969 14.24863281 -5.58398438 13.05664062 C-2.01244055 3.85818021 -2.01244055 3.85818021 0 0 Z " fill="#F2F2F2" transform="translate(242,711)"/>
<path d="M0 0 C12.56756757 0 12.56756757 0 17 4 C20.43259951 7.46409125 21.50951949 9.91706576 21.546875 14.83398438 C21.53140625 15.52814453 21.5159375 16.22230469 21.5 16.9375 C21.51546875 17.62779297 21.5309375 18.31808594 21.546875 19.02929688 C21.50808666 24.14450876 20.23643333 27.09174387 17 31 C10.85472952 34.68716229 7.83235843 34 0 34 C0 22.78 0 11.56 0 0 Z " fill="#F2F2F2" transform="translate(644,832)"/>
<path d="M0 0 C2.97 0 5.94 0 9 0 C9.71027344 1.28777344 10.42054688 2.57554687 11.15234375 3.90234375 C12.08064004 5.58077846 13.00903031 7.2591612 13.9375 8.9375 C14.40607422 9.78763672 14.87464844 10.63777344 15.35742188 11.51367188 C15.80537109 12.32255859 16.25332031 13.13144531 16.71484375 13.96484375 C17.12855225 14.7137085 17.54226074 15.46257324 17.96850586 16.23413086 C18.8778715 17.96251145 18.8778715 17.96251145 20 19 C20.29132812 18.42443359 20.58265625 17.84886719 20.8828125 17.25585938 C22.22338605 14.65270162 23.61050344 12.07735114 25 9.5 C25.45761719 8.59378906 25.91523437 7.68757812 26.38671875 6.75390625 C27.77128629 4.231338 29.01691061 2.0884267 31 0 C34.03390948 -0.83391364 35.82271332 -0.52041765 39 0 C37.69077022 3.55935779 36.11710037 6.5296819 33.99609375 9.66796875 C26.22310548 21.61721215 21.9172626 30.62266727 23 45 C20.69 45 18.38 45 16 45 C16.06703125 43.94425781 16.1340625 42.88851562 16.203125 41.80078125 C16.55784172 27.02091775 10.3291106 15.36532965 1.31982422 3.85302734 C0 2 0 2 0 0 Z " fill="#0A0A0A" transform="translate(673,826)"/>
<path d="M0 0 C1.64846769 0.44876616 3.29373455 0.90930488 4.9375 1.375 C5.85402344 1.63023437 6.77054688 1.88546875 7.71484375 2.1484375 C10 3 10 3 11 5 C10.15478516 7.29980469 10.15478516 7.29980469 8.7890625 10.171875 C8.29011475 11.22310547 7.79116699 12.27433594 7.27709961 13.35742188 C6.4593103 15.03674805 6.4593103 15.03674805 5.625 16.75 C5.07787354 17.87986328 4.53074707 19.00972656 3.96704102 20.17382812 C-4.23356807 36.85011413 -4.23356807 36.85011413 -10 44 C-11.485 44.495 -11.485 44.495 -13 45 C-14.82421875 44.00390625 -14.82421875 44.00390625 -16.6875 42.5625 C-17.31011719 42.08941406 -17.93273437 41.61632812 -18.57421875 41.12890625 C-19.04472656 40.75636719 -19.51523437 40.38382813 -20 40 C-18.60190181 36.13425849 -16.7655562 32.98404697 -14.5 29.5625 C-8.63453473 20.22519683 -4.40051954 10.08724032 0 0 Z " fill="#080807" transform="translate(580,750)"/>
<path d="M0 0 C2.64 0 5.28 0 8 0 C8 12.87 8 25.74 8 39 C14.27 39 20.54 39 27 39 C27 41.31 27 43.62 27 46 C18.09 46 9.18 46 0 46 C0 30.82 0 15.64 0 0 Z " fill="#1C1C1C" transform="translate(473,826)"/>
<path d="M0 0 C10.23 0 20.46 0 31 0 C31 1.98 31 3.96 31 6 C27.04 6 23.08 6 19 6 C19 19.2 19 32.4 19 46 C16.69 46 14.38 46 12 46 C12 32.8 12 19.6 12 6 C8.04 6 4.08 6 0 6 C0 4.02 0 2.04 0 0 Z " fill="#090909" transform="translate(555,826)"/>
<path d="M0 0 C0 12.21 0 24.42 0 37 C-5.94 39.475 -5.94 39.475 -12 42 C-12 29.46 -12 16.92 -12 4 C-4 0 -4 0 0 0 Z " fill="#FAF9F9" transform="translate(660,349)"/>
<path d="M0 0 C2.31 0 4.62 0 7 0 C7 13.2 7 26.4 7 40 C13.27 40 19.54 40 26 40 C26 41.98 26 43.96 26 46 C17.42 46 8.84 46 0 46 C0 30.82 0 15.64 0 0 Z " fill="#0B0B0B" transform="translate(313,826)"/>
<path d="M0 0 C4.64557387 1.68515915 8.8339069 4.0183865 13.125 6.4375 C13.84042969 6.83259766 14.55585937 7.22769531 15.29296875 7.63476562 C15.98261719 8.02212891 16.67226563 8.40949219 17.3828125 8.80859375 C18.00559082 9.15720459 18.62836914 9.50581543 19.27001953 9.86499023 C21.12236491 11.08028147 22.55785255 12.31842159 24 14 C23.74880755 17.64229052 21.66658111 20.81175788 20 24 C16.61798872 22.75089479 13.81469175 21.32902155 10.875 19.25 C5.79097169 15.76919815 0.44594169 12.87057113 -5 10 C-3.84414715 6.08788267 -2.64465038 3.1254959 0 0 Z " fill="#080808" transform="translate(562,715)"/>
<path d="M0 0 C3.90594753 0.73660549 7.29370624 2.47563351 10.8125 4.25 C11.43398926 4.56138916 12.05547852 4.87277832 12.69580078 5.19360352 C17.12994477 7.45716719 21.09230355 9.92966707 25 13 C23.47291037 16.43595166 21.40072955 19.11912454 19 22 C15.10571534 20.56901057 11.72678788 18.71947099 8.1875 16.5625 C3.53829449 13.80400971 -0.86980464 11.67717925 -6 10 C-4.6302836 6.00499382 -2.74277578 3.19990508 0 0 Z " fill="#090909" transform="translate(567,684)"/>
<path d="M0 0 C8.58 0 17.16 0 26 0 C22.62869706 3.37130294 19.50717852 6.32108692 15.8125 9.25 C14.95269531 9.93578125 14.09289062 10.6215625 13.20703125 11.328125 C8.77413316 14.68614338 5.46207603 14.07802966 0 14 C0 9.38 0 4.76 0 0 Z " fill="#F6F6F6" transform="translate(762,703)"/>
<path d="M0 0 C2 1 2 1 2.81640625 3.109375 C3.06261719 3.98078125 3.30882812 4.8521875 3.5625 5.75 C3.81128906 6.61109375 4.06007813 7.4721875 4.31640625 8.359375 C4.97000106 10.88411839 5.48853471 13.44267354 6 16 C2.04 16 -1.92 16 -6 16 C-4.02 10.72 -2.04 5.44 0 0 Z " fill="#EEEDED" transform="translate(446,837)"/>
</svg>
